<svg width="200" height="634" viewBox="0 0 200 634" fill="none" xmlns="http://www.w3.org/2000/svg">
<g id="woman">
<path id="Vector" d="M115.892 52.4338H47.9692V111.285H115.892V52.4338Z" fill="#FF6584"/>
<path id="Vector_2" opacity="0.1" d="M115.953 52.6226H48.0298V111.473H115.953V52.6226Z" fill="black"/>
<path id="Vector_3" d="M12.5042 244.374L3.25969 319.846C3.25969 319.846 -9.47048 356.217 15.3837 362.431C40.2379 368.645 17.3538 312.874 17.3538 312.874L26.9014 243.616L12.5042 244.374Z" fill="#FFC1C7"/>
<path id="Vector_4" d="M34.9335 177.237C34.9335 177.237 29.1747 248.617 28.4169 248.617C27.8395 248.617 23.046 248.969 17.2462 249.27C15.4276 249.364 13.512 249.454 11.5949 249.527C3.5628 249.83 10.0794 238.463 10.5341 237.706C10.9887 236.948 8.86706 229.977 5.38137 224.218C1.89568 218.459 6.59376 222.399 10.0794 217.853C13.565 213.306 10.3825 215.428 5.98754 211.791C1.5926 208.153 8.56388 206.941 12.2011 205.426C15.8383 203.91 12.0495 203.455 7.95769 200.879C3.86585 198.303 7.35149 186.633 7.95769 162.992C8.31505 151.54 11.2013 140.31 16.4096 130.105C17.6102 127.682 18.9895 125.352 20.5363 123.134L29.4777 122.376C29.4777 122.376 33.5696 138.744 33.8727 140.562C34.1758 142.381 34.9335 177.237 34.9335 177.237Z" fill="#2F2E41"/>
<path id="Vector_5" d="M58.2722 52.6635C58.2722 52.6635 62.6672 90.2478 56.9083 93.7335C51.1494 97.2191 48.7246 107.979 48.7246 107.979L70.2447 119.194L106.92 112.071L105.556 93.5819C105.556 93.5819 87.9759 92.218 91.6131 83.2765C93.9207 77.4371 95.6961 71.4011 96.9173 65.2421L58.2722 52.6635Z" fill="#FFC1C7"/>
<path id="Vector_6" opacity="0.1" d="M58.2722 52.6635C58.2722 52.6635 62.6672 90.2478 56.9083 93.7335C51.1494 97.2191 48.7246 107.979 48.7246 107.979L70.2447 119.194L106.92 112.071L105.556 93.5819C105.556 93.5819 87.9759 92.218 91.6131 83.2765C93.9207 77.4371 95.6961 71.4011 96.9173 65.2421L58.2722 52.6635Z" fill="black"/>
<path id="Vector_7" d="M82.6717 439.418C80.2643 446.889 81.611 482.051 82.3212 497.18C82.5474 502 82.5455 506.822 82.3152 511.645L80.7016 545.654L80.7409 546.685L82.6717 596.878L64.4857 594.757L63.1217 567.326C63.1217 567.326 61.4334 560.761 59.0511 550.88C52.5738 524.022 40.9651 472.676 44.178 462.151C48.5729 447.753 37.6613 394.105 37.6613 394.105L75.8519 387.285C75.8519 387.285 85.9562 429.226 82.6717 439.418Z" fill="#FFC1C7"/>
<path id="Vector_8" d="M172.692 603.033L162.084 609.095C162.084 609.095 142.837 601.669 141.776 601.366C140.715 601.063 139.503 585.15 139.503 585.15C139.503 585.15 136.999 568.822 133.858 552.113C131.645 540.34 129.117 528.38 126.924 521.803C121.62 505.89 122.226 452.848 121.62 449.362C121.014 445.876 102.373 381.316 102.373 381.316C102.373 381.316 142.837 373.739 147.99 378.285C153.142 382.832 157.992 437.693 157.689 449.362C157.386 461.031 159.053 531.502 159.053 531.502C159.053 531.502 159.26 541.75 159.585 552.676C159.815 560.399 160.103 568.46 160.417 573.481C160.884 580.728 163.952 587.562 169.055 592.728L172.692 603.033Z" fill="#FFC1C7"/>
<path id="Vector_9" d="M155.87 600.608C155.87 600.608 145.413 586.817 169.813 587.878C169.813 587.878 172.086 590.303 176.481 596.214C180.876 602.124 209.519 624.402 195.122 628.645C180.724 632.889 162.195 635.271 156.584 631C148.402 633.003 139.9 633.343 131.584 632C131.584 632 133.289 604.549 134.653 601.366C136.017 598.184 137.533 582.119 137.533 582.119L154.052 603.185L155.87 600.608Z" fill="#2F2E41"/>
<path id="Vector_10" d="M83.8841 74.7898C101.042 74.7898 114.952 60.8803 114.952 43.7221C114.952 26.5639 101.042 12.6544 83.8841 12.6544C66.7259 12.6544 52.8164 26.5639 52.8164 43.7221C52.8164 60.8803 66.7259 74.7898 83.8841 74.7898Z" fill="#FFC1C7"/>
<path id="Vector_11" opacity="0.1" d="M34.9336 177.237C34.9336 177.237 29.1747 248.617 28.417 248.617C27.8396 248.617 23.046 248.969 17.2462 249.27C17.5119 248.579 17.9086 247.946 18.4146 247.405C22.2034 243.919 24.022 217.853 24.022 217.853L18.8693 170.872L23.34 129.878C25.6193 125.407 20.5363 123.134 20.5363 123.134L29.4778 122.376C29.4778 122.376 33.5696 138.744 33.8727 140.562C34.1758 142.381 34.9336 177.237 34.9336 177.237Z" fill="black"/>
<path id="Vector_12" d="M133.441 101.008C133.441 101.008 104.646 89.187 102.525 90.2478C100.403 91.3087 94.6441 95.5521 94.6441 95.5521C94.6441 95.5521 81.1562 109.646 62.9702 105.554C62.9702 105.554 56.7567 102.523 56.9082 93.7335C56.9082 93.7335 37.9645 103.887 32.0541 110.555C26.1437 117.224 20.5363 123.134 20.5363 123.134L23.4158 170.872L28.5684 217.853C28.5684 217.853 26.7499 243.919 22.9611 247.405C19.1724 250.89 14.3228 281.049 19.9301 330.151C25.5374 379.253 14.0197 395.469 20.6879 399.864C27.356 404.259 78.2768 401.379 107.677 402.743C137.078 404.107 155.415 395.923 153.9 393.802C152.384 391.68 145.716 315.602 150.717 294.082C155.719 272.562 151.93 227.4 151.93 227.4L133.441 101.008Z" fill="#2F2E41"/>
<path id="Vector_13" d="M125.106 237.099C125.106 237.099 117.225 298.629 111.769 304.236C106.313 309.843 104.343 354.399 113.891 354.399C123.439 354.399 132.077 305.145 132.077 305.145L146.626 238.463L125.106 237.099Z" fill="#FFC1C7"/>
<path id="Vector_14" d="M55.5443 594.454C55.5443 594.454 75.2458 581.117 85.7027 594.454C85.7027 594.454 90.0977 624.157 85.7027 627.491C81.3078 630.825 51.3009 636.433 50.6947 627.491C50.0885 618.55 52.2102 614.458 52.2102 614.458L55.5443 602.334L55.5443 594.454Z" fill="#2F2E41"/>
<path id="Vector_15" opacity="0.1" d="M130.789 109.116L129.804 103.887C129.804 103.887 151.93 127.681 155.567 148.291C159.204 168.902 167.236 190.271 161.629 193.15C156.022 196.029 151.475 195.12 154.052 199.818C156.628 204.516 157.386 210.124 154.809 211.942C152.233 213.761 150.414 215.276 151.324 219.065C152.233 222.854 152.233 230.583 150.414 232.25C148.596 233.917 144.049 247.253 144.049 247.253C144.049 247.253 125.56 241.191 118.589 245.283C111.618 249.375 117.528 229.37 117.528 229.37C117.528 229.37 116.013 221.338 113.739 219.974C111.466 218.61 110.102 216.034 112.982 213.306C115.861 210.578 118.134 210.578 114.194 206.789C110.254 203.001 104.949 204.668 110.405 200.727C115.861 196.787 118.741 194.969 115.103 191.18C111.466 187.391 108.284 185.269 110.86 181.935C113.436 178.601 118.059 105.782 130.789 109.116Z" fill="black"/>
<path id="Vector_16" d="M128.288 101.917L133.441 101.008C133.441 101.008 155.567 124.801 159.204 145.412C162.842 166.023 170.874 187.391 165.266 190.271C159.659 193.15 155.112 192.241 157.689 196.939C160.265 201.637 161.023 207.244 158.447 209.063C155.87 210.881 154.052 212.397 154.961 216.186C155.87 219.974 155.87 227.703 154.052 229.37C152.233 231.037 147.687 244.374 147.687 244.374C147.687 244.374 129.197 238.312 122.226 242.404C115.255 246.496 121.165 226.491 121.165 226.491C121.165 226.491 119.65 218.459 117.377 217.095C115.103 215.731 113.739 213.155 116.619 210.427C119.498 207.699 121.772 207.699 117.831 203.91C113.891 200.121 108.587 201.788 114.043 197.848C119.498 193.908 122.378 192.089 118.741 188.3C115.103 184.512 111.921 182.39 114.497 179.056C117.073 175.722 115.558 98.583 128.288 101.917Z" fill="#2F2E41"/>
<path id="Vector_17" d="M57.727 8.02009C54.4171 10.5534 51.6197 13.6936 49.4842 17.273C48.4383 19.3182 47.5641 21.4467 46.8703 23.6365C44.4106 30.7155 38.2961 37.8852 40.884 44.9185C41.6224 46.9254 42.7738 49.0414 42.1119 51.0748C41.524 52.8807 39.7094 53.9345 38.3969 55.3071C35.5799 58.2533 35.1064 62.6739 34.9344 66.7465C34.6192 74.2047 38.7202 82.9938 43.6754 88.5769C44.7513 89.6272 45.748 90.7556 46.6575 91.9528C47.2708 92.9075 47.6716 93.9829 47.8328 95.1062C47.994 96.2294 47.9117 97.3741 47.5916 98.4628L54.8101 96.9562C55.0705 99.6212 55.1519 102.301 55.0537 104.977C56.7653 105.165 58.4895 104.757 59.9356 103.822C61.3818 102.888 62.4617 101.483 62.9933 99.8454C63.4018 101.754 64.069 103.597 64.9764 105.325C67.0938 102.676 68.7178 99.6689 69.7707 96.4457C71.1521 92.3173 71.4486 87.903 70.6317 83.6269C69.8673 80.5038 68.8272 77.4547 67.5238 74.5155C64.9731 68.0694 62.8902 61.4499 60.8097 54.8371C59.7291 51.4026 58.6355 47.8564 58.963 44.2708L61.5279 43.9918C61.5563 42.5756 61.8302 41.175 62.3374 39.8523C63.8407 40.1704 65.2871 40.7147 66.627 41.4667L69.5839 33.9639C71.5354 35.9878 74.3361 36.9039 77.0178 37.7482L87.2108 40.9577L87.2727 38.9404C91.5751 42.7491 96.4756 45.823 101.777 48.0386C101.478 47.6771 101.259 47.2559 101.136 46.8031C101.012 46.3503 100.987 45.8764 101.061 45.413C103.573 49.9128 102.568 55.5187 101.018 60.4334C99.4679 65.3482 97.4113 70.3518 98.0356 75.4672C98.5025 79.2932 100.462 82.9522 100.099 86.7893C99.92 88.6789 99.181 90.477 98.9512 92.3611C98.4031 96.8545 100.766 101.134 103.046 105.044L107.481 98.9537C108.973 96.6281 110.868 94.5864 113.075 92.9238C115.434 91.3598 118.358 90.6578 120.413 88.7124C124.083 85.2395 123.617 79.323 122.424 74.4135C121.79 71.8036 121.022 69.1567 121.255 66.481C121.65 61.945 124.802 58.192 126.578 53.9992C127.843 50.9421 128.391 47.6358 128.181 44.3338C127.97 41.0319 127.007 37.822 125.363 34.9503C123.161 31.172 119.832 28.1291 117.756 24.2797C115.69 20.4477 114.902 15.8881 112.07 12.581C110.688 11.076 109.08 9.79488 107.304 8.78345C99.2572 3.94867 90.2193 1.00009 80.8693 0.159185C72.0022 -0.767795 64.5218 2.41889 57.727 8.02009Z" fill="#FF6584"/>
</g>
</svg>
